<svg width="19" height="19" viewBox="0 0 19 19" fill="none" xmlns="http://www.w3.org/2000/svg">
<path d="M5.51082 7.59096L14.6086 11.8442L5.51082 16.0974V7.59096ZM10.7247 11.8442L7.15584 10.1753V13.5122L10.7247 11.8442ZM0 3.7089e-05H19V19H0V3.7089e-05ZM17.355 1.64506H1.64502V17.355H17.355V1.64506ZM19 6.41562H0V0H19V6.41562ZM1.64502 4.77056H17.355V1.64502H1.64502V4.77056ZM4.77056 4.03032H3.20779V2.3853H4.77056V4.03032ZM7.8961 4.03032H6.33333V2.3853H7.8961V4.03032ZM11.1039 4.03032H9.54114V2.3853H11.1039V4.03032Z" fill="#353535"/>
</svg>
