<svg width="19" height="19" viewBox="0 0 19 19" fill="none" xmlns="http://www.w3.org/2000/svg">
<path d="M11.7705 0C15.7632 0 19 3.23675 19 7.22946C19 11.2222 15.7632 14.459 11.7705 14.459C7.77779 14.459 4.54104 11.2222 4.54104 7.22952C4.54579 3.23868 7.7797 0.00476854 11.7701 1.85445e-05L11.7705 0ZM11.7705 12.7855C14.839 12.7855 17.3265 10.298 17.3265 7.22946C17.3265 4.16094 14.839 1.67348 11.7705 1.67348C8.70202 1.67348 6.21452 4.16098 6.21452 7.2295C6.21833 10.2964 8.70356 12.7817 11.7702 12.7855H11.7705ZM1.18316 19L0 17.8168L6.39274 11.4241L7.5759 12.6073L1.18316 19ZM11.7705 3.19636C13.5543 3.19636 15.0004 4.64242 15.0004 6.42621C15.0004 8.21 13.5543 9.65603 11.7705 9.65603C9.98673 9.65603 8.54069 8.21 8.54069 6.42621C8.5426 4.64318 9.98751 3.19825 11.7704 3.1964H11.7705V3.19636ZM11.7705 7.98254C12.6301 7.98254 13.3269 7.28576 13.3269 6.42621C13.3269 5.56667 12.6301 4.86984 11.7705 4.86984C10.911 4.86984 10.2142 5.56667 10.2142 6.42621C10.2151 7.28537 10.9114 7.98161 11.7704 7.98258H11.7705L11.7705 7.98254ZM14.8907 12.3646C14.6712 10.8225 13.3597 9.64975 11.7742 9.64975C10.1888 9.64975 8.87723 10.8225 8.65973 12.3478L8.65777 12.3646L7.00016 12.1328C7.33671 9.77077 9.34574 7.9746 11.7742 7.9746C14.2028 7.9746 16.2118 9.77077 16.5453 12.1071L16.5483 12.1328L14.8907 12.3646Z" fill="#353535"/>
</svg>
